The city of Lost Children / La cité des enfants perdus.

Xvid (good quality) + Extras.

Files:

Behind the Scenes.avi            The City of Lost Children.avi
Behind the Scenes.idx            The City of Lost Children.idx
Behind the Scenes.rar            The City of Lost Children.rar
English, French and Spanish sub  The Making of.avi
Interview with Gaultier.avi      The Making of.idx
Interview with Gaultier.idx      The Making of.rar
Interview with Gaultier.rar


Specs:
 mediainfo The City of Lost Children.avi 
General
Complete name                    : The City of Lost Children.avi
Format                           : AVI
Format/Info                      : Audio Video Interleave
File size                        : 1.36 GiB
Duration                         : 1h 47mn
Overall bit rate                 : 1 801 Kbps
Writing application              : VirtualDubMod 1.5.4.1 (build 2178/release)
Writing library                  : VirtualDubMod build 2178/release

Video
ID                               : 0
Format                           : MPEG-4 Visual
Format profile                   : Advanced Simple@L5
Format settings, BVOP            : Yes
Format settings, QPel            : No
Format settings, GMC             : No warppoints
Format settings, Matrix          : Custom
Codec ID                         : XVID
Codec ID/Hint                    : XviD
Duration                         : 1h 47mn
Bit rate                         : 1 408 Kbps
Width                            : 672 pixels
Height                           : 368 pixels
Display aspect ratio             : 16:9
Frame rate                       : 25.000 fps
Resolution                       : 8 bits
Colorimetry                      : 4:2:0
Scan type                        : Progressive
Bits/(Pixel*Frame)               : 0.228
Stream size                      : 1.06 GiB (78%)
Writing library                  : XviD 1.2.1 (UTC 2008-12-04)

Audio #1
ID                               : 1
Format                           : MPEG Audio
Format version                   : Version 1
Format profile                   : Layer 3
Format_Settings_Mode             : Joint stereo
Format_Settings_ModeExtension    : MS Stereo
Codec ID                         : 55
Codec ID/Hint                    : MP3
Duration                         : 1h 47mn
Bit rate mode                    : Constant
Bit rate                         : 192 Kbps
Channel(s)                       : 2 channels
Sampling rate                    : 48.0 KHz
Stream size                      : 148 MiB (11%)
Alignment                        : Aligned on interleaves
Interleave, duration             : 80 ms (2.00 video frames)
Interleave, preload duration     : 504 ms
Writing library                  : LAME3.98r
Encoding settings                : -m j -V 4 -q 2 -lowpass 18.6 -b 192
Language                         : French

Audio #2
ID                               : 2
Format                           : MPEG Audio
Format version                   : Version 1
Format profile                   : Layer 3
Format_Settings_Mode             : Joint stereo
Format_Settings_ModeExtension    : MS Stereo
Codec ID                         : 55
Codec ID/Hint                    : MP3
Duration                         : 1h 47mn
Bit rate mode                    : Constant
Bit rate                         : 192 Kbps
Channel(s)                       : 2 channels
Sampling rate                    : 48.0 KHz
Stream size                      : 148 MiB (11%)
Alignment                        : Aligned on interleaves
Interleave, duration             : 80 ms (2.00 video frames)
Interleave, preload duration     : 504 ms
Writing library                  : LAME3.98r
Encoding settings                : -m j -V 4 -q 2 -lowpass 18.6 -b 192
Language                         : French

Not my rip - thanks to some guy, somewhere...



Enjoy!

:)


*** Don't be a selfish leech: please seed at least as much as you dowload ***
*** Ne faites pas la sangsue égoiste: seedez au moins autant que vous d/l ***

            If everybody is seeding 1:1, this torrent will
                                never die!